<svg xmlns="http://www.w3.org/2000/svg" width="22.877" height="18.616" viewBox="0 0 22.877 18.616"><g id="Icon_ionic-logo-twitter" data-name="Icon ionic-logo-twitter" transform="translate(0)"><path id="Icon_ionic-logo-twitter-2" fill="#727272" d="M24.291,6.706a9.489,9.489,0,0,1-2.7.742,4.71,4.71,0,0,0,2.065-2.6,9.326,9.326,0,0,1-2.981,1.139A4.692,4.692,0,0,0,12.559,9.2a4.6,4.6,0,0,0,.121,1.071A13.3,13.3,0,0,1,3,5.358a4.7,4.7,0,0,0,1.459,6.273,4.584,4.584,0,0,1-2.133-.587V11.1A4.7,4.7,0,0,0,6.1,15.708a4.725,4.725,0,0,1-1.236.165,4.428,4.428,0,0,1-.882-.087,4.7,4.7,0,0,0,4.387,3.263,9.41,9.41,0,0,1-5.832,2.012,9.514,9.514,0,0,1-1.12-.068A13.119,13.119,0,0,0,8.6,23.116,13.275,13.275,0,0,0,21.964,9.745c0-.2,0-.407-.015-.606A9.554,9.554,0,0,0,24.291,6.706Z" data-name="Icon ionic-logo-twitter" transform="translate(-1.413 -4.5)"/></g></svg>