<svg xmlns="http://www.w3.org/2000/svg" width="64" height="64" viewBox="0 0 64 64"><g id="Group_217" data-name="Group 217" transform="translate(-14320 74)"><rect id="Rectangle_42" width="64" height="64" fill="none" data-name="Rectangle 42" transform="translate(14320 -74)"/><g id="Group_210" data-name="Group 210" transform="translate(1541.568 -1167.206)"><path id="Path_3854" fill="#fff" d="M1171.565,35.883l3.332-1.6c-.567-.726-.663-.753-1.329-.471a23.116,23.116,0,0,1-18.929-.069c-.6-.26-.827.111-1.274.476.588.31,1.1.6,1.63.854s1.1.49,1.777.791c-.71,1.115-1.385,2.189-2.084,3.247-.052.079-.284.1-.406.062a32.032,32.032,0,0,1-9.416-4.755.875.875,0,0,1-.3-.572,33.224,33.224,0,0,1,5.7-21.88,1.181,1.181,0,0,1,.471-.4,32.625,32.625,0,0,1,7.5-2.343.418.418,0,0,1,.534.282c.236.5.469,1,.746,1.471a.591.591,0,0,0,.46.26,30.918,30.918,0,0,1,8.344.022c.305.043.406-.074.512-.308.227-.5.454-1,.73-1.479a.588.588,0,0,1,.486-.228,30.908,30.908,0,0,1,7.459,2.3,1.38,1.38,0,0,1,.547.467,33.336,33.336,0,0,1,5.587,14.639,32.934,32.934,0,0,1,.1,7.184,1.012,1.012,0,0,1-.37.642,32.557,32.557,0,0,1-9.222,4.681c-.317.1-.51.084-.7-.224-.612-1.014-1.251-2.012-1.9-3.043m-.829-14.128a3.081,3.081,0,0,0-1.9.6,4.261,4.261,0,0,0-.731,6.025,3.257,3.257,0,0,0,5.3-.1,5.23,5.23,0,0,0,.826-2.15,3.741,3.741,0,0,0-3.5-4.382m-9.559,3.84c-.027-.2-.052-.542-.119-.871a3.718,3.718,0,0,0-2.89-2.937,3.4,3.4,0,0,0-3.448,1.638,4.344,4.344,0,0,0,.334,5.028,3.278,3.278,0,0,0,5.011.142,4.36,4.36,0,0,0,1.112-3" data-name="Path 3854" transform="translate(11646 1101)"/></g></g></svg>