<svg xmlns="http://www.w3.org/2000/svg" width="64" height="64" viewBox="0 0 64 64"><g id="Group_218" data-name="Group 218" transform="translate(-14426 74)"><rect id="Rectangle_43" width="64" height="64" fill="none" data-name="Rectangle 43" transform="translate(14426 -74)"/><g id="Group_211" data-name="Group 211" transform="translate(450.964 -1158)"><path id="Path_3858" fill="#fff" d="M2376.277,15.019c0,2.271.114,4.548-.027,6.81a7.938,7.938,0,0,1-4.418,7.13,10.191,10.191,0,0,1-4.549,1.021q-6.1.041-12.2,0a10.391,10.391,0,0,1-4.284-.894,7.868,7.868,0,0,1-4.607-6.426,14.042,14.042,0,0,1-.145-2.1c-.013-3.807-.008-7.614-.005-11.421a10.746,10.746,0,0,1,.664-3.84,7.818,7.818,0,0,1,6.523-5.1,15.344,15.344,0,0,1,2.437-.186q5.759-.028,11.517,0a10.839,10.839,0,0,1,3.93.708,7.845,7.845,0,0,1,5.063,6.663,15.6,15.6,0,0,1,.141,2.147c.019,1.83.006,3.66.006,5.49ZM2361.192,2.845V2.8c-.392,0-.784-.007-1.176,0-1.992.043-3.99.009-5.974.158a5.046,5.046,0,0,0-4.749,3.561,8.689,8.689,0,0,0-.448,2.635c-.048,3.775-.024,7.551-.017,11.326a13.651,13.651,0,0,0,.092,1.514,5.381,5.381,0,0,0,5.147,5.056c1.887.138,3.787.147,5.68.141,2.858-.009,5.721.006,8.573-.152a4.982,4.982,0,0,0,4.749-3.555,9.035,9.035,0,0,0,.446-2.734c.048-3.758.024-7.518.016-11.277a13.22,13.22,0,0,0-.1-1.612,5.335,5.335,0,0,0-4.268-4.769,9.63,9.63,0,0,0-1.989-.233c-1.993-.03-3.987-.011-5.98-.011" data-name="Path 3858" transform="translate(11646 1101)"/><path id="Path_3859" fill="#fff" d="M2408.766,69.6a7.969,7.969,0,1,1,8-7.887,7.948,7.948,0,0,1-8,7.887m.1-13.108a5.139,5.139,0,1,0,5.069,5.208,5.129,5.129,0,0,0-5.069-5.208" data-name="Path 3859" transform="translate(11598.383 1054.366)"/><path id="Path_3860" fill="#fff" d="M2512.318,45.021a1.586,1.586,0,1,1,1.564-1.6,1.577,1.577,0,0,1-1.564,1.6" data-name="Path 3860" transform="translate(11502.904 1064.632)"/></g></g></svg>