<svg xmlns="http://www.w3.org/2000/svg" width="64" height="64" viewBox="0 0 64 64">
  <g id="Group_221" data-name="Group 221" transform="translate(-14758 74)">
    <rect id="Rectangle_46" data-name="Rectangle 46" width="64" height="64" transform="translate(14758 -74)" fill="none"/>
    <g id="Group_212" data-name="Group 212" transform="translate(1356.016 -1189.942)">
      <path id="Path_3855" data-name="Path 3855" d="M1872.546,118.374h3.105c1.042,0,2.084.013,3.126-.007.358-.007.469.117.459.466-.021.732-.006,1.464-.006,2.317a3.749,3.749,0,0,0,.28-.3,6.683,6.683,0,0,1,6.711-2.883c3.815.436,6.185,2.942,6.656,6.91a19.383,19.383,0,0,1,.143,2.206c.015,3.69.007,7.38.006,11.071,0,.142-.013.285-.021.462h-6.7v-.563c0-3.366.017-6.732-.013-10.1a9.055,9.055,0,0,0-.287-2.343,3.232,3.232,0,0,0-5.037-1.819,3.471,3.471,0,0,0-1.689,2.862c-.052,2.285-.041,4.571-.049,6.857-.006,1.69,0,3.38,0,5.105h-6.684Z" transform="translate(11556.304 1024.327)" fill="#fff"/>
      <path id="Path_3856" data-name="Path 3856" d="M1775.873,122.2h.9c1.761,0,3.522.011,5.283-.008.393,0,.568.095.523.511a7.458,7.458,0,0,0-.005.81v18.929h-6.7Z" transform="translate(11642.531 1020.504)" fill="#fff"/>
      <path id="Path_3857" data-name="Path 3857" d="M1771.984,35.463a3.789,3.789,0,0,1,7.558-.011,3.542,3.542,0,0,1-3.786,3.5,3.494,3.494,0,0,1-3.771-3.486" transform="translate(11646 1101)" fill="#fff"/>
    </g>
  </g>
</svg>
