<svg xmlns="http://www.w3.org/2000/svg" width="64" height="64" viewBox="0 0 64 64">
  <g id="Group_220" data-name="Group 220" transform="translate(-14648 74)">
    <rect id="Rectangle_45" data-name="Rectangle 45" width="64" height="64" transform="translate(14648 -74)" fill="none"/>
    <g id="Group_213" data-name="Group 213" transform="translate(2442.022 -1185.475)">
      <path id="Path_3853" data-name="Path 3853" d="M592.262,57.45c-5.559,0-11.12-.059-16.678.025a4.4,4.4,0,0,1-4.607-4.625c.077-7.018.024-14.038.028-21.057a4.106,4.106,0,0,1,3.135-4.183,5.178,5.178,0,0,1,1.274-.129q16.839-.01,33.678,0a4.137,4.137,0,0,1,4.418,4.435q0,10.528,0,21.057A4.158,4.158,0,0,1,609,57.449q-8.371.006-16.742,0M574.474,32.656c-.025.273-.053.435-.053.6q0,9.853,0,19.707c0,.909.206,1.093,1.174,1.093h33.3c1.027,0,1.205-.173,1.206-1.192q0-9.757,0-19.514c0-.2-.027-.393-.05-.693-.349.275-.6.471-.848.668q-7.815,6.205-15.63,12.41a1.775,1.775,0,0,1-2.6.012L577.759,35.254c-1.068-.848-2.139-1.693-3.285-2.6m3.356-1.75c.174.163.269.266.377.352q6.806,5.407,13.607,10.82c.37.3.582.245.922-.026q6.744-5.381,13.511-10.733a3.228,3.228,0,0,1,.473-.263l-.157-.15Z" transform="translate(11646 1101)" fill="#fff"/>
    </g>
  </g>
</svg>
