<svg xmlns="http://www.w3.org/2000/svg" width="64" height="64" viewBox="0 0 64 64"><g id="Group_216" data-name="Group 216" transform="translate(-14220 74)"><g id="Group_215" data-name="Group 215"><rect id="Rectangle_41" width="64" height="64" fill="none" data-name="Rectangle 41" transform="translate(14220 -74)"/><g id="Group_209" data-name="Group 209" transform="translate(-363.721 -1185.038)"><path id="Path_3861" fill="#fff" d="M2954.187,28.505a21.519,21.519,0,0,0,15.376,7.816,20.939,20.939,0,0,1,.016-2.563,7.519,7.519,0,0,1,12.573-4.673.855.855,0,0,0,.957.241c1.372-.493,2.747-.981,4.132-1.475a7.482,7.482,0,0,1-3,3.8c.026.056.052.112.08.168l3.99-1.07c-.646.756-1.176,1.427-1.762,2.046a10.647,10.647,0,0,1-1.476,1.318,1.166,1.166,0,0,0-.489,1.07c-.237,8.834-3.989,15.676-12,19.607-6.844,3.359-13.783,2.865-20.442-.916-.1-.058-.194-.137-.422-.3a15.492,15.492,0,0,0,11.008-3.124,8.076,8.076,0,0,1-4.372-1.561,7.546,7.546,0,0,1-2.625-3.7h3.074c.012-.052.025-.1.038-.157a7.668,7.668,0,0,1-5.789-7.326l3.167.884.1-.172a7.65,7.65,0,0,1-3.18-5.927,6.99,6.99,0,0,1,1.042-3.992" data-name="Path 3861" transform="translate(11646 1101)"/></g></g></g></svg>