<svg xmlns="http://www.w3.org/2000/svg" width="64" height="64" viewBox="0 0 64 64"><g id="Group_219" data-name="Group 219" transform="translate(-14548 74)"><rect id="Rectangle_44" width="64" height="64" fill="none" data-name="Rectangle 44" transform="translate(14548 -74)"/><g id="Group_214" data-name="Group 214" transform="translate(2913 -1223.824)"><path id="Path_3852" fill="#fff" d="M21.183,65.824c4.778.226,9.557.445,14.334.686a12.776,12.776,0,0,1,1.905.269,5.014,5.014,0,0,1,4.294,4.17,60.121,60.121,0,0,1,.761,7.067A58.39,58.39,0,0,1,42,89.576c-.529,3.762-2.268,5.369-6.089,5.691a189.113,189.113,0,0,1-24.107.325c-1.946-.085-3.891-.241-5.827-.453A5.45,5.45,0,0,1,.673,90.1,55.426,55.426,0,0,1,.094,78.153a62.991,62.991,0,0,1,.719-7.007,5.094,5.094,0,0,1,4.9-4.476c4.637-.32,9.286-.474,13.931-.69.509-.024,1.019,0,1.529,0l.007-.153M17.06,87.278l11.062-6.385L17.06,74.511Z" data-name="Path 3852" transform="translate(11646 1101)"/></g></g></svg>