<svg xmlns="http://www.w3.org/2000/svg" width="20.125" height="23" viewBox="0 0 20.125 23">
  <path id="Icon_awesome-discord" data-name="Icon awesome-discord" d="M13.352,10.925a1.177,1.177,0,1,1-1.173-1.276A1.225,1.225,0,0,1,13.352,10.925ZM7.981,9.649a1.281,1.281,0,0,0,0,2.553,1.225,1.225,0,0,0,1.173-1.276A1.218,1.218,0,0,0,7.981,9.649Zm12.144-7.28V23c-2.9-2.56-1.971-1.713-5.336-4.841l.609,2.128H2.358A2.363,2.363,0,0,1,0,17.917V2.369A2.363,2.363,0,0,1,2.358,0h15.41A2.363,2.363,0,0,1,20.125,2.369Zm-3.278,10.9a15.4,15.4,0,0,0-1.656-6.7A5.687,5.687,0,0,0,11.96,5.359l-.161.184A7.654,7.654,0,0,1,14.662,7a9.771,9.771,0,0,0-8.59-.334c-.425.2-.678.334-.678.334A7.758,7.758,0,0,1,8.418,5.5L8.3,5.359A5.687,5.687,0,0,0,5.071,6.567a15.4,15.4,0,0,0-1.656,6.7,4.17,4.17,0,0,0,3.507,1.748s.426-.517.771-.954a3.577,3.577,0,0,1-2.013-1.357c.169.118.448.272.471.288a8.383,8.383,0,0,0,7.176.4,6.581,6.581,0,0,0,1.323-.679,3.629,3.629,0,0,1-2.082,1.368c.345.437.759.932.759.932A4.2,4.2,0,0,0,16.847,13.271Z" fill="#fff"/>
</svg>
